<svg width="44" height="46" viewBox="0 0 44 46" fill="none" xmlns="http://www.w3.org/2000/svg">
<path d="M23.2728 10.2163H20.7351C20.503 10.2163 20.3131 10.4088 20.3131 10.6442V25.3695C20.3131 25.5086 20.3764 25.637 20.4872 25.7172L29.2081 32.1733C29.398 32.3123 29.6618 32.2749 29.799 32.0823L31.3079 29.9963C31.4503 29.7984 31.4081 29.5309 31.2182 29.3972L23.6949 23.8826V10.6442C23.6949 10.4088 23.5049 10.2163 23.2728 10.2163ZM34.8691 14.2386L43.1416 16.2872C43.4053 16.3514 43.6639 16.1481 43.6639 15.8754L43.7061 7.23698C43.7061 6.87861 43.2998 6.67535 43.0255 6.90001L34.7108 13.4844C34.648 13.5337 34.6001 13.6 34.5728 13.6756C34.5454 13.7512 34.5397 13.8331 34.5562 13.9119C34.5728 13.9907 34.6109 14.0632 34.6662 14.121C34.7216 14.1788 34.7919 14.2195 34.8691 14.2386ZM43.7166 30.344L40.7252 29.3009C40.6209 29.2647 40.5068 29.2713 40.4072 29.3192C40.3076 29.3672 40.2305 29.4528 40.1924 29.5577C40.0921 29.8305 39.9866 30.0979 39.8758 30.3654C38.9367 32.6172 37.5914 34.6444 35.8715 36.3828C34.1707 38.1125 32.155 39.4912 29.9362 40.4426C27.6376 41.4278 25.1669 41.9335 22.6714 41.9295C20.1495 41.9295 17.7068 41.4321 15.4066 40.4426C13.1878 39.4912 11.1721 38.1125 9.47127 36.3828C7.75663 34.6444 6.41129 32.6172 5.46692 30.3654C4.50048 28.0337 4.00533 25.5292 4.0108 23C4.0108 20.4433 4.50145 17.9614 5.47747 15.6293C6.41657 13.3774 7.7619 11.3502 9.48182 9.61187C11.1826 7.88216 13.1983 6.50342 15.4171 5.5521C17.7068 4.56256 20.1548 4.06512 22.6766 4.06512C25.1985 4.06512 27.6412 4.56256 29.9415 5.5521C32.1603 6.50342 34.1759 7.88216 35.8768 9.61187C36.4149 10.1628 36.9214 10.7351 37.3856 11.3395L40.5406 8.83628C36.3885 3.45535 29.9256 -0.00534265 22.6661 6.19149e-06C10.0252 0.00535503 -0.125448 10.4142 0.00117182 23.2354C0.127792 35.8319 10.231 46 22.6766 46C32.4633 46 40.7991 39.7098 43.9751 30.9002C44.0543 30.6756 43.9382 30.4242 43.7166 30.344Z" fill="white"/>
</svg>
