<svg width="48" height="44" viewBox="0 0 48 44" fill="none" xmlns="http://www.w3.org/2000/svg">
<path d="M28.7692 37.2308H35.5385V44H28.7692V37.2308Z" fill="white"/>
<path d="M40.6154 37.2308H47.3846V44H40.6154V37.2308Z" fill="white"/>
<path d="M28.7692 25.3846H35.5385V32.1538H28.7692V25.3846Z" fill="white"/>
<path d="M40.6154 25.3846H47.3846V32.1538H40.6154V25.3846Z" fill="white"/>
<path d="M25.3846 37.2308H3.38462V13.5385H44V22H47.3846V13.5385C47.3837 12.6411 47.0268 11.7807 46.3923 11.1462C45.7578 10.5116 44.8974 10.1547 44 10.1538H33.8462V3.38462C33.8453 2.48723 33.4884 1.62686 32.8538 0.99232C32.2193 0.357776 31.3589 0.000896037 30.4615 0H16.9231C16.0257 0.000896037 15.1653 0.357776 14.5308 0.99232C13.8962 1.62686 13.5394 2.48723 13.5385 3.38462V10.1538H3.38462C2.48723 10.1547 1.62686 10.5116 0.99232 11.1462C0.357776 11.7807 0.000896037 12.6411 0 13.5385V37.2308C0.000896037 38.1281 0.357776 38.9885 0.99232 39.6231C1.62686 40.2576 2.48723 40.6145 3.38462 40.6154H25.3846V37.2308ZM16.9231 3.38462H30.4615V10.1538H16.9231V3.38462Z" fill="white"/>
</svg>
