<svg width="26" height="26" viewBox="0 0 26 26" fill="none" xmlns="http://www.w3.org/2000/svg">
<path d="M23.3375 19.1862H21.3024C21.1634 19.1862 21.0331 19.247 20.9463 19.3541C20.7436 19.6002 20.5265 19.8376 20.2978 20.0634C19.3624 20.9997 18.2545 21.7459 17.0352 22.2607C15.772 22.7942 14.4143 23.0679 13.0431 23.0655C11.6564 23.0655 10.3131 22.7933 9.05092 22.2607C7.83165 21.7459 6.72368 20.9997 5.7883 20.0634C4.85125 19.1302 4.10407 18.0242 3.58814 16.8066C3.05257 15.5444 2.78334 14.204 2.78334 12.8173C2.78334 11.4306 3.05546 10.0903 3.58814 8.82806C4.10344 7.60929 4.84455 6.5121 5.7883 5.57124C6.73206 4.63038 7.82925 3.88927 9.05092 3.37397C10.3131 2.84129 11.6564 2.56917 13.0431 2.56917C14.4297 2.56917 15.773 2.8384 17.0352 3.37397C18.2569 3.88927 19.3541 4.63038 20.2978 5.57124C20.5265 5.79994 20.7408 6.03733 20.9463 6.2805C21.0331 6.38762 21.1663 6.44841 21.3024 6.44841H23.3375C23.5199 6.44841 23.6328 6.24576 23.5315 6.09233C21.3111 2.64154 17.426 0.357422 13.0112 0.369001C6.0749 0.386371 0.513692 6.01706 0.583171 12.9447C0.65265 19.7623 6.20518 25.2656 13.0431 25.2656C17.4463 25.2656 21.314 22.9844 23.5315 19.5423C23.6299 19.3889 23.5199 19.1862 23.3375 19.1862ZM25.9111 12.6349L21.8032 9.39258C21.6498 9.27099 21.4269 9.381 21.4269 9.57496V11.7751H12.3367C12.2093 11.7751 12.1051 11.8793 12.1051 12.0067V13.6279C12.1051 13.7553 12.2093 13.8595 12.3367 13.8595H21.4269V16.0597C21.4269 16.2536 21.6527 16.3636 21.8032 16.242L25.9111 12.9997C25.9388 12.978 25.9612 12.9504 25.9766 12.9188C25.992 12.8872 26 12.8525 26 12.8173C26 12.7822 25.992 12.7475 25.9766 12.7159C25.9612 12.6843 25.9388 12.6566 25.9111 12.6349Z" fill="black"/>
</svg>
