<svg width="26" height="26" viewBox="0 0 26 26" fill="none" xmlns="http://www.w3.org/2000/svg">
<path d="M23.3375 19.128H21.3024C21.1634 19.128 21.0331 19.1888 20.9463 19.2959C20.7436 19.542 20.5265 19.7794 20.2978 20.0052C19.3624 20.9415 18.2545 21.6877 17.0352 22.2024C15.772 22.736 14.4143 23.0097 13.0431 23.0072C11.6564 23.0072 10.3131 22.7351 9.05092 22.2024C7.83165 21.6877 6.72368 20.9415 5.7883 20.0052C4.85125 19.072 4.10407 17.966 3.58814 16.7483C3.05257 15.4861 2.78334 14.1458 2.78334 12.7591C2.78334 11.3724 3.05546 10.032 3.58814 8.76984C4.10344 7.55106 4.84455 6.45387 5.7883 5.51301C6.73206 4.57215 7.82925 3.83104 9.05092 3.31574C10.3131 2.78307 11.6564 2.51094 13.0431 2.51094C14.4297 2.51094 15.773 2.78017 17.0352 3.31574C18.2569 3.83104 19.3541 4.57215 20.2978 5.51301C20.5265 5.74171 20.7408 5.9791 20.9463 6.22228C21.0331 6.32939 21.1663 6.39018 21.3024 6.39018H23.3375C23.5199 6.39018 23.6328 6.18754 23.5315 6.0341C21.3111 2.58331 17.426 0.299194 13.0112 0.310774C6.0749 0.328144 0.513692 5.95883 0.583171 12.8865C0.65265 19.7041 6.20518 25.2074 13.0431 25.2074C17.4463 25.2074 21.314 22.9262 23.5315 19.4841C23.6299 19.3306 23.5199 19.128 23.3375 19.128ZM25.9111 12.5767L21.8032 9.33435C21.6498 9.21277 21.4269 9.32277 21.4269 9.51674V11.7169H12.3367C12.2093 11.7169 12.1051 11.8211 12.1051 11.9485V13.5697C12.1051 13.6971 12.2093 13.8013 12.3367 13.8013H21.4269V16.0014C21.4269 16.1954 21.6527 16.3054 21.8032 16.1838L25.9111 12.9415C25.9388 12.9198 25.9612 12.8921 25.9766 12.8605C25.992 12.8289 26 12.7942 26 12.7591C26 12.7239 25.992 12.6892 25.9766 12.6576C25.9612 12.626 25.9388 12.5984 25.9111 12.5767Z" fill="white"/>
</svg>
