<svg width="459" height="309" viewBox="0 0 459 309" fill="none" xmlns="http://www.w3.org/2000/svg">
<g filter="url(#filter0_d)">
<path d="M8 38C8 19.2223 23.2223 4 42 4H417C435.778 4 451 19.2223 451 38V215.483C451 231.071 440.4 244.662 425.281 248.459L238.263 295.425C232.838 296.787 227.161 296.79 221.735 295.434L33.7538 248.438C18.6181 244.655 8 231.055 8 215.454V38Z" fill="white"/>
</g>
<g opacity="0.7">
<path opacity="0.7" d="M182.736 147.576H139V171.718H182.736V147.576Z" fill="#765341"/>
<path opacity="0.1" d="M167.691 151.775H154.395V154.574H167.691V151.775Z" fill="#765341"/>
<path opacity="0.1" d="M166.029 152.124H156.057V154.224H166.029V152.124Z" fill="#765341"/>
<path opacity="0.7" d="M227.172 147.576H183.436V171.718H227.172V147.576Z" fill="#765341"/>
<path opacity="0.1" d="M212.127 151.775H198.831V154.574H212.127V151.775Z" fill="#765341"/>
<path opacity="0.1" d="M210.465 152.124H200.493V154.224H210.465V152.124Z" fill="#765341"/>
<path opacity="0.7" d="M182.736 122.734H139V146.876H182.736V122.734Z" fill="#765341"/>
<path opacity="0.1" d="M167.691 126.932H154.395V129.732H167.691V126.932Z" fill="#765341"/>
<path opacity="0.1" d="M166.029 127.282H156.057V129.382H166.029V127.282Z" fill="#765341"/>
<path opacity="0.7" d="M227.172 122.734H183.436V146.876H227.172V122.734Z" fill="#765341"/>
<path opacity="0.1" d="M212.127 126.932H198.831V129.732H212.127V126.932Z" fill="#765341"/>
<path opacity="0.1" d="M210.465 127.282H200.493V129.382H210.465V127.282Z" fill="#765341"/>
<path opacity="0.7" d="M182.736 97.5418H139V121.684H182.736V97.5418Z" fill="#765341"/>
<path opacity="0.1" d="M167.691 101.741H154.395V104.54H167.691V101.741Z" fill="#765341"/>
<path opacity="0.1" d="M166.029 102.09H156.057V104.19H166.029V102.09Z" fill="#765341"/>
<path opacity="0.7" d="M227.172 97.5418H183.436V121.684H227.172V97.5418Z" fill="#765341"/>
<path opacity="0.1" d="M212.127 101.741H198.831V104.54H212.127V101.741Z" fill="#765341"/>
<path opacity="0.1" d="M210.465 102.09H200.493V104.19H210.465V102.09Z" fill="#765341"/>
<path opacity="0.7" d="M227.172 72.3499H183.436V96.4922H227.172V72.3499Z" fill="#765341"/>
<path opacity="0.1" d="M212.127 76.5485H198.831V79.3476H212.127V76.5485Z" fill="#765341"/>
<path opacity="0.1" d="M210.465 76.8984H200.493V78.9977H210.465V76.8984Z" fill="#765341"/>
</g>
<g opacity="0.7">
<path opacity="0.7" d="M271.608 147.226H227.872V171.368H271.608V147.226Z" fill="#765341"/>
<path opacity="0.1" d="M256.563 151.425H243.267V154.224H256.563V151.425Z" fill="#765341"/>
<path opacity="0.1" d="M254.901 151.775H244.929V153.874H254.901V151.775Z" fill="#765341"/>
<path opacity="0.7" d="M316.044 147.226H272.308V171.368H316.044V147.226Z" fill="#765341"/>
<path opacity="0.1" d="M300.999 151.425H287.703V154.224H300.999V151.425Z" fill="#765341"/>
<path opacity="0.1" d="M299.337 151.775H289.365V153.874H299.337V151.775Z" fill="#765341"/>
<path opacity="0.7" d="M271.608 122.384H227.872V146.526H271.608V122.384Z" fill="#765341"/>
<path opacity="0.1" d="M256.563 126.583H243.267V129.382H256.563V126.583Z" fill="#765341"/>
<path opacity="0.1" d="M254.901 126.932H244.929V129.032H254.901V126.932Z" fill="#765341"/>
<path opacity="0.7" d="M316.044 122.384H272.308V146.526H316.044V122.384Z" fill="#765341"/>
<path opacity="0.1" d="M300.999 126.583H287.703V129.382H300.999V126.583Z" fill="#765341"/>
<path opacity="0.1" d="M299.337 126.932H289.365V129.032H299.337V126.932Z" fill="#765341"/>
<path opacity="0.7" d="M271.608 97.192H227.872V121.334H271.608V97.192Z" fill="#765341"/>
<path opacity="0.1" d="M256.563 101.391H243.267V104.19H256.563V101.391Z" fill="#765341"/>
<path opacity="0.1" d="M254.901 101.741H244.929V103.84H254.901V101.741Z" fill="#765341"/>
<path opacity="0.7" d="M316.044 97.192H272.308V121.334H316.044V97.192Z" fill="#765341"/>
<path opacity="0.1" d="M300.999 101.391H287.703V104.19H300.999V101.391Z" fill="#765341"/>
<path opacity="0.1" d="M299.337 101.741H289.365V103.84H299.337V101.741Z" fill="#765341"/>
<path opacity="0.7" d="M316.044 72H272.308V96.1423H316.044V72Z" fill="#765341"/>
<path opacity="0.1" d="M300.999 76.1987H287.703V78.9978H300.999V76.1987Z" fill="#765341"/>
<path opacity="0.1" d="M299.337 76.5486H289.365V78.6479H299.337V76.5486Z" fill="#765341"/>
</g>
<path d="M301.725 103.455C301.667 102.916 301.338 102.444 300.855 102.202C300.008 101.841 299.031 102.255 298.699 103.112L290.927 119.463L289.178 183.842H291.977L293.027 119.606L301.579 104.47C301.733 104.156 301.785 103.8 301.725 103.455Z" fill="#18201A"/>
<path d="M269.41 206.06C275.207 206.06 279.906 201.36 279.906 195.563C279.906 189.766 275.207 185.067 269.41 185.067C263.613 185.067 258.913 189.766 258.913 195.563C258.913 201.36 263.613 206.06 269.41 206.06Z" fill="#1F2E23"/>
<path d="M269.41 202.211C273.081 202.211 276.058 199.235 276.058 195.563C276.058 191.892 273.081 188.916 269.41 188.916C265.739 188.916 262.762 191.892 262.762 195.563C262.762 199.235 265.739 202.211 269.41 202.211Z" fill="#505351"/>
<path d="M261.362 179.118L268.248 194.688C268.662 195.631 269.94 195.771 270.55 194.942C270.596 194.878 270.638 194.809 270.672 194.737L278.857 178.068L261.362 179.118Z" fill="#1F2E23"/>
<path d="M203.981 206.06C209.778 206.06 214.477 201.36 214.477 195.563C214.477 189.766 209.778 185.067 203.981 185.067C198.184 185.067 193.484 189.766 193.484 195.563C193.484 201.36 198.184 206.06 203.981 206.06Z" fill="#1F2E23"/>
<path opacity="0.1" d="M203.981 206.06C209.778 206.06 214.477 201.36 214.477 195.563C214.477 189.766 209.778 185.067 203.981 185.067C198.184 185.067 193.484 189.766 193.484 195.563C193.484 201.36 198.184 206.06 203.981 206.06Z" fill="#18201A"/>
<path d="M203.981 202.211C207.652 202.211 210.628 199.235 210.628 195.563C210.628 191.892 207.652 188.916 203.981 188.916C200.309 188.916 197.333 191.892 197.333 195.563C197.333 199.235 200.309 202.211 203.981 202.211Z" fill="#505351"/>
<path d="M195.934 179.118L202.819 194.688C203.232 195.631 204.511 195.771 205.12 194.942C205.166 194.878 205.208 194.809 205.244 194.737L213.427 178.068L195.934 179.118Z" fill="#1F2E23"/>
<path d="M303.474 104.154C303.416 103.617 303.089 103.145 302.603 102.903C301.757 102.541 300.78 102.954 300.448 103.812L294.426 118.762L292.678 185.941H295.476L296.526 118.906L303.328 105.17C303.483 104.855 303.534 104.499 303.474 104.154Z" fill="#18201A"/>
<path d="M179.663 180.692L189.11 174.745L291.103 173.87L293.727 180.692H179.663Z" fill="#B4BAB5"/>
<path d="M179.663 186.991V180.693L295.575 179.574L295.463 183.842H181.763V186.991H179.663Z" fill="#18201A"/>
<path d="M194.358 209.734C200.155 209.734 204.854 205.034 204.854 199.237C204.854 193.44 200.155 188.741 194.358 188.741C188.561 188.741 183.861 193.44 183.861 199.237C183.861 205.034 188.561 209.734 194.358 209.734Z" fill="#18201A"/>
<path d="M194.358 205.885C198.029 205.885 201.006 202.909 201.006 199.237C201.006 195.566 198.029 192.59 194.358 192.59C190.687 192.59 187.71 195.566 187.71 199.237C187.71 202.909 190.687 205.885 194.358 205.885Z" fill="#505351"/>
<path d="M186.311 182.792L193.198 198.362C193.611 199.305 194.89 199.445 195.498 198.616C195.545 198.552 195.587 198.483 195.622 198.411L203.806 181.742L186.311 182.792Z" fill="#18201A"/>
<path d="M275.883 209.734C281.68 209.734 286.379 205.034 286.379 199.237C286.379 193.44 281.68 188.741 275.883 188.741C270.086 188.741 265.386 193.44 265.386 199.237C265.386 205.034 270.086 209.734 275.883 209.734Z" fill="#18201A"/>
<path d="M275.883 205.885C279.554 205.885 282.531 202.909 282.531 199.237C282.531 195.566 279.554 192.59 275.883 192.59C272.212 192.59 269.235 195.566 269.235 199.237C269.235 202.909 272.212 205.885 275.883 205.885Z" fill="#505351"/>
<path d="M267.834 182.792L274.721 198.362C275.135 199.305 276.413 199.445 277.023 198.616C277.069 198.552 277.111 198.483 277.145 198.411L285.329 181.742L267.834 182.792Z" fill="#18201A"/>
<path d="M236.52 153.227H192.784V177.369H236.52V153.227Z" fill="#B87F5F"/>
<path opacity="0.1" d="M221.474 157.425H208.179V160.224H221.474V157.425Z" fill="black"/>
<path opacity="0.1" d="M219.813 157.774H209.841V159.874H219.813V157.774Z" fill="black"/>
<path d="M280.956 153.227H237.22V177.369H280.956V153.227Z" fill="#B87F5F"/>
<path opacity="0.1" d="M265.911 157.425H252.616V160.224H265.911V157.425Z" fill="black"/>
<path opacity="0.1" d="M264.248 157.774H254.276V159.874H264.248V157.774Z" fill="black"/>
<path d="M236.52 128.385H192.784V152.528H236.52V128.385Z" fill="#B87F5F"/>
<path opacity="0.1" d="M221.474 132.583H208.179V135.382H221.474V132.583Z" fill="black"/>
<path opacity="0.1" d="M219.813 132.933H209.841V135.033H219.813V132.933Z" fill="black"/>
<path d="M280.956 128.385H237.22V152.528H280.956V128.385Z" fill="#B87F5F"/>
<path opacity="0.1" d="M265.911 132.583H252.616V135.382H265.911V132.583Z" fill="black"/>
<path opacity="0.1" d="M264.248 132.933H254.276V135.033H264.248V132.933Z" fill="black"/>
<path d="M236.52 103.193H192.784V127.335H236.52V103.193Z" fill="#B87F5F"/>
<path opacity="0.1" d="M221.474 107.391H208.179V110.19H221.474V107.391Z" fill="black"/>
<path opacity="0.1" d="M219.813 107.742H209.841V109.842H219.813V107.742Z" fill="black"/>
<path d="M280.956 103.193H237.22V127.335H280.956V103.193Z" fill="#B87F5F"/>
<path opacity="0.1" d="M265.911 107.391H252.616V110.19H265.911V107.391Z" fill="black"/>
<path opacity="0.1" d="M264.248 107.742H254.276V109.842H264.248V107.742Z" fill="black"/>
<path d="M280.956 78H237.22V102.143H280.956V78Z" fill="#B87F5F"/>
<path opacity="0.1" d="M265.911 82.1998H252.616V84.9986H265.911V82.1998Z" fill="black"/>
<path opacity="0.1" d="M264.248 82.5491H254.276V84.649H264.248V82.5491Z" fill="black"/>
<defs>
<filter id="filter0_d" x="0" y="0" width="459" height="308.449" filterUnits="userSpaceOnUse" color-interpolation-filters="sRGB">
<feFlood flood-opacity="0" result="BackgroundImageFix"/>
<feColorMatrix in="SourceAlpha" type="matrix" values="0 0 0 0 0 0 0 0 0 0 0 0 0 0 0 0 0 0 127 0"/>
<feOffset dy="4"/>
<feGaussianBlur stdDeviation="4"/>
<feColorMatrix type="matrix" values="0 0 0 0 0 0 0 0 0 0 0 0 0 0 0 0 0 0 0.16 0"/>
<feBlend mode="normal" in2="BackgroundImageFix" result="effect1_dropShadow"/>
<feBlend mode="normal" in="SourceGraphic" in2="effect1_dropShadow" result="shape"/>
</filter>
</defs>
</svg>
