<svg width="172" height="58" viewBox="0 0 172 58" fill="none" xmlns="http://www.w3.org/2000/svg">
<path d="M75.0909 38.7647H71.5457V21.5588H75.0909V38.7647ZM81.3068 25.9785L81.4131 27.4556C82.327 26.3133 83.552 25.7421 85.0883 25.7421C86.4433 25.7421 87.4517 26.14 88.1135 26.9357C88.7752 27.7314 89.114 28.921 89.1298 30.5045V38.7647H85.7146V30.5872C85.7146 29.8624 85.557 29.3385 85.2419 29.0155C84.9268 28.6846 84.4029 28.5192 83.6702 28.5192C82.7091 28.5192 81.9882 28.9288 81.5076 29.7482V38.7647H78.0925V25.9785H81.3068ZM96.5155 34.5932L98.8908 25.9785H102.46L98.1463 38.7647H94.8847L90.5715 25.9785H94.1403L96.5155 34.5932ZM109.692 39.0011C107.817 39.0011 106.288 38.426 105.107 37.2757C103.933 36.1255 103.346 34.5932 103.346 32.6788V32.348C103.346 31.0638 103.594 29.9176 104.09 28.9092C104.587 27.8929 105.288 27.1129 106.194 26.5693C107.108 26.0179 108.148 25.7421 109.314 25.7421C111.063 25.7421 112.437 26.2936 113.438 27.3965C114.446 28.4995 114.95 30.0633 114.95 32.088V33.4824H106.808C106.919 34.3175 107.25 34.9871 107.801 35.4913C108.36 35.9955 109.065 36.2476 109.916 36.2476C111.232 36.2476 112.26 35.771 113.001 34.8178L114.679 36.6967C114.167 37.4215 113.473 37.9887 112.599 38.3984C111.724 38.8002 110.755 39.0011 109.692 39.0011ZM109.302 28.5074C108.624 28.5074 108.073 28.7358 107.647 29.1928C107.23 29.6497 106.962 30.3036 106.844 31.1544H111.594V30.8826C111.579 30.1263 111.374 29.5433 110.98 29.1337C110.586 28.7161 110.027 28.5074 109.302 28.5074ZM120.044 25.9785L120.15 27.4556C121.064 26.3133 122.289 25.7421 123.825 25.7421C125.18 25.7421 126.189 26.14 126.85 26.9357C127.512 27.7314 127.851 28.921 127.867 30.5045V38.7647H124.451V30.5872C124.451 29.8624 124.294 29.3385 123.979 29.0155C123.664 28.6846 123.14 28.5192 122.407 28.5192C121.446 28.5192 120.725 28.9288 120.245 29.7482V38.7647H116.829V25.9785H120.044ZM134.555 22.8351V25.9785H136.741V28.4837H134.555V34.865C134.555 35.3377 134.646 35.6765 134.827 35.8813C135.008 36.0861 135.355 36.1886 135.867 36.1886C136.245 36.1886 136.58 36.161 136.871 36.1058V38.6938C136.202 38.8986 135.512 39.0011 134.803 39.0011C132.408 39.0011 131.187 37.7918 131.14 35.3732V28.4837H129.273V25.9785H131.14V22.8351H134.555ZM137.758 32.2534C137.758 30.985 138.002 29.8545 138.49 28.8619C138.979 27.8692 139.68 27.1011 140.594 26.5575C141.516 26.0139 142.583 25.7421 143.796 25.7421C145.522 25.7421 146.928 26.27 148.015 27.3256C149.11 28.3813 149.721 29.8151 149.847 31.6271L149.87 32.5016C149.87 34.4632 149.323 36.0389 148.228 37.2285C147.133 38.4102 145.663 39.0011 143.82 39.0011C141.976 39.0011 140.503 38.4102 139.4 37.2285C138.305 36.0468 137.758 34.4396 137.758 32.407V32.2534ZM141.173 32.5016C141.173 33.7148 141.401 34.6444 141.858 35.2905C142.315 35.9286 142.969 36.2476 143.82 36.2476C144.647 36.2476 145.293 35.9325 145.758 35.3023C146.223 34.6641 146.455 33.6479 146.455 32.2534C146.455 31.0638 146.223 30.1421 145.758 29.4882C145.293 28.8343 144.639 28.5074 143.796 28.5074C142.961 28.5074 142.315 28.8343 141.858 29.4882C141.401 30.1342 141.173 31.1387 141.173 32.5016ZM159.159 29.1809C158.694 29.1179 158.284 29.0864 157.93 29.0864C156.638 29.0864 155.791 29.5236 155.389 30.3981V38.7647H151.974V25.9785H155.2L155.294 27.5029C155.98 26.3291 156.929 25.7421 158.142 25.7421C158.521 25.7421 158.875 25.7933 159.206 25.8958L159.159 29.1809ZM165.8 33.9315L168.163 25.9785H171.827L166.686 40.75L166.403 41.4236C165.638 43.0938 164.378 43.9288 162.621 43.9288C162.125 43.9288 161.621 43.854 161.108 43.7043V41.1163L161.628 41.1282C162.274 41.1282 162.755 41.0297 163.07 40.8327C163.393 40.6358 163.645 40.3088 163.826 39.8519L164.228 38.8002L159.75 25.9785H163.425L165.8 33.9315Z" fill="#519C36"/>
<path opacity="0.8" d="M0.469482 41.2507L24.5622 57.2019V32.4924L19.0996 28.8657L0.469482 41.2055V41.2507Z" fill="#B7D8AC"/>
<path opacity="0.8" d="M51.0174 16.8875L26.925 0.92099V25.6306L32.4027 29.2573L51.0174 16.9176V16.8875Z" fill="#B7D8AC"/>
<path opacity="0.8" d="M0.469482 16.5261V41.2056L19.0996 28.8658L0.469482 16.5261Z" fill="#519C36"/>
<path opacity="0.8" d="M51.018 41.597V16.9174L32.4027 29.2572L51.018 41.597Z" fill="#519C36"/>
</svg>
